<svg xmlns="http://www.w3.org/2000/svg" viewBox="0 0 32 32">
  <rect width="32" height="32" rx="7" fill="hsl(174 70% 32%)"/>
  <path d="M3.5 13.5c2.6 0 2.6-3 5.2-3s2.6 3 5.2 3 2.6-3 5.2-3 2.6 3 5.2 3 2.6-3 5.2-3"
    fill="none" stroke="#ffffff" stroke-width="2.3" stroke-linecap="round"/>
  <path d="M3.5 19c2.6 0 2.6-3 5.2-3s2.6 3 5.2 3 2.6-3 5.2-3 2.6 3 5.2 3 2.6-3 5.2-3"
    fill="none" stroke="#b7ede4" stroke-width="2.3" stroke-linecap="round"/>
  <path d="M3.5 24.5c2.6 0 2.6-3 5.2-3s2.6 3 5.2 3 2.6-3 5.2-3 2.6 3 5.2 3 2.6-3 5.2-3"
    fill="none" stroke="#8fded1" stroke-width="2.3" stroke-linecap="round"/>
</svg>
